<svg id="visual" viewBox="0 0 900 600" width="900" height="600" xmlns="http://www.w3.org/2000/svg" xmlns:xlink="http://www.w3.org/1999/xlink" version="1.1"><rect x="0" y="0" width="900" height="600" fill="#DBEAFE"></rect><path d="M0 435L47 435L47 447L95 447L95 441L142 441L142 383L189 383L189 442L237 442L237 301L284 301L284 478L332 478L332 463L379 463L379 388L426 388L426 472L474 472L474 489L521 489L521 420L568 420L568 474L616 474L616 465L663 465L663 325L711 325L711 406L758 406L758 494L805 494L805 365L853 365L853 393L900 393L900 479L900 601L900 601L853 601L853 601L805 601L805 601L758 601L758 601L711 601L711 601L663 601L663 601L616 601L616 601L568 601L568 601L521 601L521 601L474 601L474 601L426 601L426 601L379 601L379 601L332 601L332 601L284 601L284 601L237 601L237 601L189 601L189 601L142 601L142 601L95 601L95 601L47 601L47 601L0 601Z" fill="#0066FF" stroke-linecap="square" stroke-linejoin="miter"></path></svg>