<svg id="visual" viewBox="0 0 1920 1080" width="1920" height="1080" xmlns="http://www.w3.org/2000/svg" xmlns:xlink="http://www.w3.org/1999/xlink" version="1.1"><rect x="0" y="0" width="1920" height="1080" fill="#DBEAFE"></rect><path d="M0 878L101 878L101 613L202 613L202 648L303 648L303 782L404 782L404 614L505 614L505 726L606 726L606 517L707 517L707 564L808 564L808 699L909 699L909 768L1011 768L1011 644L1112 644L1112 632L1213 632L1213 677L1314 677L1314 550L1415 550L1415 534L1516 534L1516 737L1617 737L1617 660L1718 660L1718 796L1819 796L1819 757L1920 757L1920 585L1920 1081L1920 1081L1819 1081L1819 1081L1718 1081L1718 1081L1617 1081L1617 1081L1516 1081L1516 1081L1415 1081L1415 1081L1314 1081L1314 1081L1213 1081L1213 1081L1112 1081L1112 1081L1011 1081L1011 1081L909 1081L909 1081L808 1081L808 1081L707 1081L707 1081L606 1081L606 1081L505 1081L505 1081L404 1081L404 1081L303 1081L303 1081L202 1081L202 1081L101 1081L101 1081L0 1081Z" fill="#0066FF" stroke-linecap="square" stroke-linejoin="miter"></path></svg>