<svg id="visual" viewBox="0 0 900 600" width="900" height="600" xmlns="http://www.w3.org/2000/svg" xmlns:xlink="http://www.w3.org/1999/xlink" version="1.1"><rect x="0" y="0" width="900" height="600" fill="#DBEAFE"></rect><path d="M0 175L47 175L47 249L95 249L95 262L142 262L142 314L189 314L189 242L237 242L237 168L284 168L284 213L332 213L332 194L379 194L379 132L426 132L426 197L474 197L474 118L521 118L521 205L568 205L568 128L616 128L616 172L663 172L663 159L711 159L711 191L758 191L758 282L805 282L805 267L853 267L853 309L900 309L900 302L900 0L900 0L853 0L853 0L805 0L805 0L758 0L758 0L711 0L711 0L663 0L663 0L616 0L616 0L568 0L568 0L521 0L521 0L474 0L474 0L426 0L426 0L379 0L379 0L332 0L332 0L284 0L284 0L237 0L237 0L189 0L189 0L142 0L142 0L95 0L95 0L47 0L47 0L0 0Z" fill="#0066FF" stroke-linecap="square" stroke-linejoin="miter"></path></svg>