<svg id="visual" viewBox="0 0 1920 1080" width="1920" height="1080" xmlns="http://www.w3.org/2000/svg" xmlns:xlink="http://www.w3.org/1999/xlink" version="1.1"><rect x="0" y="0" width="1920" height="1080" fill="#EFF6FF"></rect><path d="M0 464L35.5 529.3C71 594.7 142 725.3 213.2 732.2C284.3 739 355.7 622 426.8 579.2C498 536.3 569 567.7 640 637.2C711 706.7 782 814.3 853.2 802.2C924.3 790 995.7 658 1066.8 635.2C1138 612.3 1209 698.7 1280 781.7C1351 864.7 1422 944.3 1493.2 900.8C1564.3 857.3 1635.7 690.7 1706.8 629.3C1778 568 1849 612 1884.5 634L1920 656L1920 1081L1884.5 1081C1849 1081 1778 1081 1706.8 1081C1635.7 1081 1564.3 1081 1493.2 1081C1422 1081 1351 1081 1280 1081C1209 1081 1138 1081 1066.8 1081C995.7 1081 924.3 1081 853.2 1081C782 1081 711 1081 640 1081C569 1081 498 1081 426.8 1081C355.7 1081 284.3 1081 213.2 1081C142 1081 71 1081 35.5 1081L0 1081Z" fill="#3B82F6" stroke-linecap="round" stroke-linejoin="miter"></path></svg>